HIERARCHY
ROOT Hips
{
  OFFSET 48.6783 100.573 11.2207
  CHANNELS 6 Xposition Yposition Zposition Zrotation Xrotation Yrotation
  JOINT spine
  {
    OFFSET 0 8.81705 0.507024
    CHANNELS 3 Zrotation Xrotation Yrotation
    JOINT spine1
    {
      OFFSET 0 10.7766 0
      CHANNELS 3 Zrotation Xrotation Yrotation
      JOINT spine2
      {
        OFFSET 0 10.3259 0
        CHANNELS 3 Zrotation Xrotation Yrotation
        JOINT Neck
        {
          OFFSET 0 26.511 1.26395
          CHANNELS 3 Zrotation Xrotation Yrotation
          JOINT Head
          {
            OFFSET 0 8.00966 0
            CHANNELS 3 Zrotation Xrotation Yrotation
            End Site
            {
              OFFSET 0 19.3879 -6.39386
            }
          }
        }
        JOINT RightShoulder
        {
          OFFSET -4.34795 11.1512 -0.605422
          CHANNELS 3 Zrotation Xrotation Yrotation
          JOINT RightArm
          {
            OFFSET 0 14.6258 0
            CHANNELS 3 Zrotation Xrotation Yrotation
            JOINT RightArmRoll
            {
              OFFSET 0 7.3834 0
              CHANNELS 3 Zrotation Xrotation Yrotation
              JOINT RightForeArm
              {
                OFFSET 0 21.5052 0
                CHANNELS 3 Zrotation Xrotation Yrotation
                JOINT RightForeArmRoll
                {
                  OFFSET 0 8.28532 0
                  CHANNELS 3 Zrotation Xrotation Yrotation
                  JOINT RightHand
                  {
                    OFFSET 0 16.6268 0
                    CHANNELS 3 Zrotation Xrotation Yrotation
                    End Site
                    {
                      OFFSET 0 0 0
                    }
                  }
                }
              }
            }
          }
        }
        JOINT LeftShoulder
        {
          OFFSET 4.34795 11.1512 -0.605422
          CHANNELS 3 Zrotation Xrotation Yrotation
          JOINT LeftArm
          {
            OFFSET 0 14.6258 0
            CHANNELS 3 Zrotation Xrotation Yrotation
            JOINT LeftArmRoll
            {
              OFFSET 0 7.3834 0
              CHANNELS 3 Zrotation Xrotation Yrotation
              JOINT LeftForeArm
              {
                OFFSET 0 21.5052 0
                CHANNELS 3 Zrotation Xrotation Yrotation
                JOINT LeftForeArmRoll
                {
                  OFFSET 0 8.28532 0
                  CHANNELS 3 Zrotation Xrotation Yrotation
                  JOINT LeftHand
                  {
                    OFFSET 0 16.6268 0
                    CHANNELS 3 Zrotation Xrotation Yrotation
                    End Site
                    {
                      OFFSET 0 0 0
                    }
                  }
                }
              }
            }
          }
        }
      }
    }
  }
  JOINT RightUpLeg
  {
    OFFSET -7.8151 -1.43309 -1.20217
    CHANNELS 3 Zrotation Xrotation Yrotation
    JOINT RightUpLegRoll
    {
      OFFSET 0 19.4959 0
      CHANNELS 3 Zrotation Xrotation Yrotation
      JOINT RightLeg
      {
        OFFSET 0 -24.1427 0
        CHANNELS 3 Zrotation Xrotation Yrotation
        JOINT RightLegRoll
        {
          OFFSET 0 24.2217 0
          CHANNELS 3 Zrotation Xrotation Yrotation
          JOINT RightFoot
          {
            OFFSET 0 20.1605 0
            CHANNELS 3 Zrotation Xrotation Yrotation
            JOINT RightToeBase
            {
              OFFSET 0 16.8532 0
              CHANNELS 3 Zrotation Xrotation Yrotation
              End Site
              {
                OFFSET 0.00714343 8.16187 -0.94078
              }
            }
          }
        }
      }
    }
  }
  JOINT LeftUpLeg
  {
    OFFSET 7.8151 -1.43309 -1.20217
    CHANNELS 3 Zrotation Xrotation Yrotation
    JOINT LeftUpLegRoll
    {
      OFFSET 0 19.496 0
      CHANNELS 3 Zrotation Xrotation Yrotation
      JOINT LeftLeg
      {
        OFFSET 0 24.1426 0
        CHANNELS 3 Zrotation Xrotation Yrotation
        JOINT LeftLegRoll
        {
          OFFSET 0 24.4456 0
          CHANNELS 3 Zrotation Xrotation Yrotation
          JOINT LeftFoot
          {
            OFFSET 0 19.9366 0
            CHANNELS 3 Zrotation Xrotation Yrotation
            JOINT LeftToeBase
            {
              OFFSET 0 16.8532 0
              CHANNELS 3 Zrotation Xrotation Yrotation
              End Site
              {
                OFFSET -0.0320138 8.16186 -0.940781
              }
            }
          }
        }
      }
    }
  }
}
MOTION
Frames: 7
Frame Time: 0.00208333
50.1367 100.527 11.1729 -0.588179 -1.38508 2.06182 0.364125 -2.13572 -0.0782344 0.713488 -0.288103 -0.189813 0.716199 1.35689 -0.201828 -3.99363 19.0218 1.92652 -2.93864 -1.49531 0.40962 66.8817 -2.14456 -2.13015 105.758 14.3087 9.57471 1.98139e-006 2.58806e-006 2.31069e-006 17.2426 1.47141 -0.166824 6.58071e-006 7.41369e-007 -3.00242 8.02911 -4.95143 0.697688 -62.6808 -4.38224 3.01024 -107.789 12.6051 -3.26543 -5.71357e-006 3.13011e-006 -3.62749e-008 -13.4161 9.60732 1.5595 1.70222e-005 -2.51718e-008 2.99999 -8.02886 -4.95141 -0.697663 179.076 -0.109078 -0.67402 180 7.01555e-015 178.96 178.042 4.83468 179.775 -3.00586e-007 -2.57474e-006 0.0337779 -18.3606 67.6163 19.2247 8.13635 25.2327 -3.48767 -176.556 1.17922 2.04172 4.54188e-006 -4.6773e-006 -1.08687 -2.01972 -9.67116 0.205723 -4.23967e-007 -5.90834e-006 -0.190509 20.1374 69.7686 -21.116 -8.1463 25.5089 3.10816 
50.1411 100.531 11.1874 -0.594123 -1.39974 2.06066 0.364961 -2.13517 -0.0817136 0.715883 -0.285671 -0.196879 0.718661 1.35933 -0.208933 -3.92191 19.0659 1.91166 -3.02587 -1.51804 0.40309 66.9168 -2.14816 -2.13521 105.741 14.3629 9.5522 1.98139e-006 2.58806e-006 2.31069e-006 17.2476 1.4711 -0.166379 6.58071e-006 7.41369e-007 -3.00242 8.02911 -4.95143 0.697688 -62.667 -4.37619 3.00583 -107.805 12.6243 -3.29044 -5.71357e-006 3.13011e-006 -3.62749e-008 -13.396 9.5189 1.54722 1.70222e-005 -2.51718e-008 2.99999 -8.02886 -4.95141 -0.697663 179.089 -0.123949 -0.688853 180 7.01555e-015 178.96 178.064 4.84152 179.774 -3.00586e-007 -2.57474e-006 0.0337779 -18.3599 67.6155 19.2239 8.13635 25.2327 -3.48767 -176.552 1.16823 2.03945 4.54188e-006 -4.6773e-006 -1.08688 -2.01791 -9.68697 0.206145 -4.23967e-007 -5.90834e-006 -0.190611 20.1498 69.7812 -21.1292 -8.14627 25.5084 3.10885 
50.1417 100.53 11.194 -0.600315 -1.41603 2.06074 0.365832 -2.13434 -0.085403 0.718364 -0.282629 -0.204371 0.721214 1.36237 -0.216466 -3.84963 19.1111 1.89667 -3.11414 -1.54177 0.396396 66.9519 -2.15159 -2.14018 105.724 14.4175 9.52983 1.98139e-006 2.58806e-006 2.31069e-006 17.2524 1.46938 -0.165681 6.58071e-006 7.41369e-007 -3.00242 8.02911 -4.95143 0.697688 -62.6533 -4.37019 3.00145 -107.82 12.6434 -3.31619 -5.71357e-006 3.13011e-006 -3.62749e-008 -13.3758 9.42786 1.53457 1.70222e-005 -2.51718e-008 2.99999 -8.02886 -4.95141 -0.697663 179.103 -0.141346 -0.704506 180 7.01555e-015 178.96 178.087 4.848 179.772 -3.00586e-007 -2.57474e-006 0.0337779 -18.3594 67.6148 19.2233 8.13635 25.2327 -3.48767 -176.547 1.15566 2.03711 4.54188e-006 -4.6773e-006 -1.08689 -2.0158 -9.70325 0.206613 -4.23967e-007 -5.90834e-006 -0.190718 20.1628 69.7945 -21.1431 -8.14623 25.5078 3.10967 
50.1372 100.53 11.1973 -0.606679 -1.43346 2.0617 0.366727 -2.13331 -0.0892397 0.720906 -0.279161 -0.212162 0.72383 1.36583 -0.224299 -3.77694 19.157 1.88159 -3.20312 -1.56621 0.389588 66.9869 -2.15489 -2.14508 105.708 14.4724 9.50755 1.98139e-006 2.58806e-006 2.31069e-006 17.2572 1.46668 -0.164806 6.58071e-006 7.41369e-007 -3.00242 8.02911 -4.95143 0.697688 -62.6395 -4.36422 2.99708 -107.835 12.6624 -3.34247 -5.71357e-006 3.13011e-006 -3.62749e-008 -13.3555 9.33498 1.52168 1.70222e-005 -2.51718e-008 2.99999 -8.02886 -4.95141 -0.697663 179.117 -0.160511 -0.720734 180 7.01555e-015 178.96 178.11 4.85424 179.771 -3.00586e-007 -2.57474e-006 0.0337779 -18.3589 67.6143 19.2229 8.13635 25.2327 -3.48767 -176.543 1.14197 2.03472 4.54188e-006 -4.6773e-006 -1.0869 -2.01348 -9.71986 0.207114 -4.23967e-007 -5.90834e-006 -0.190828 20.1763 69.8082 -21.1575 -8.14618 25.5072 3.11056 
50.1404 100.53 11.1803 -0.613142 -1.45153 2.06315 0.367637 -2.13217 -0.0931605 0.723483 -0.275449 -0.220124 0.726483 1.36954 -0.232303 -3.704 19.2032 1.86645 -3.29252 -1.59105 0.382713 67.0219 -2.15812 -2.14995 105.691 14.5275 9.48532 1.98139e-006 2.58806e-006 2.31069e-006 17.262 1.46341 -0.16383 6.58071e-006 7.41369e-007 -3.00242 8.02911 -4.95143 0.697688 -62.6257 -4.35827 2.99272 -107.851 12.6814 -3.36905 -5.71357e-006 3.13011e-006 -3.62749e-008 -13.3352 9.24105 1.50864 1.70222e-005 -2.51718e-008 2.99999 -8.02886 -4.95141 -0.697663 179.132 -0.180685 -0.737291 180 7.01555e-015 178.96 178.135 4.86031 179.769 -3.00586e-007 -2.57474e-006 0.0337779 -18.3586 67.6138 19.2224 8.13635 25.2327 -3.48767 -176.538 1.12766 2.0323 4.54188e-006 -4.6773e-006 -1.08692 -2.01104 -9.73665 0.207634 -4.23967e-007 -5.90834e-006 -0.19094 20.19 69.8222 -21.1721 -8.14613 25.5065 3.11151 
50.1487 100.53 11.1901 -0.619628 -1.46977 2.06472 0.36855 -2.131 -0.0971023 0.726069 -0.271676 -0.228129 0.729146 1.37331 -0.24035 -3.63099 19.2496 1.85129 -3.38203 -1.616 0.375822 67.057 -2.16134 -2.15481 105.675 14.5826 9.4631 1.98139e-006 2.58806e-006 2.31069e-006 17.2667 1.46001 -0.162829 6.58071e-006 7.41369e-007 -3.00242 8.02911 -4.95143 0.697688 -62.6119 -4.35232 2.98836 -107.866 12.7004 -3.39571 -5.71357e-006 3.13011e-006 -3.62749e-008 -13.3149 9.14686 1.49558 1.70222e-005 -2.51718e-008 2.99999 -8.02886 -4.95141 -0.697663 179.147 -0.201113 -0.75393 180 7.01555e-015 178.96 178.159 4.86637 179.767 -3.00586e-007 -2.57474e-006 0.0337779 -18.3582 67.6134 19.222 8.13635 25.2327 -3.48767 -176.534 1.11318 2.02988 4.54188e-006 -4.6773e-006 -1.08693 -2.00857 -9.7535 0.208159 -4.23967e-007 -5.90834e-006 -0.191053 20.2038 69.8363 -21.1869 -8.14609 25.5058 3.11247 
50.1551 100.52 11.2122 -0.626064 -1.48768 2.06605 0.369456 -2.12989 -0.101002 0.728639 -0.268024 -0.236049 0.731792 1.37696 -0.248311 -3.55806 19.2957 1.83615 -3.47133 -1.64074 0.368964 67.092 -2.16459 -2.15968 105.658 14.6376 9.44085 1.98139e-006 2.58806e-006 2.31069e-006 17.2715 1.45689 -0.161878 6.58071e-006 7.41369e-007 -3.00242 8.02911 -4.95143 0.697688 -62.5981 -4.34636 2.984 -107.881 12.7195 -3.42222 -5.71357e-006 3.13011e-006 -3.62749e-008 -13.2947 9.05318 1.48261 1.70222e-005 -2.51718e-008 2.99999 -8.02886 -4.95141 -0.697663 179.161 -0.221035 -0.770404 180 7.01555e-015 178.96 178.183 4.8725 179.766 -3.00586e-007 -2.57474e-006 0.0337779 -18.3578 67.6129 19.2216 8.13635 25.2327 -3.48767 -176.529 1.09902 2.02747 4.54188e-006 -4.6773e-006 -1.08695 -2.00616 -9.77025 0.208674 -4.23967e-007 -5.90834e-006 -0.191164 20.2176 69.8502 -21.2015 -8.14604 25.5051 3.1134 
